<svg id="svg" version="1.1" xmlns="http://www.w3.org/2000/svg" xmlns:xlink="http://www.w3.org/1999/xlink" width="400" height="579.5744680851063" viewBox="0, 0, 400,579.5744680851063"><g id="svgg"><path id="path0" d="M200.000 76.234 C 99.128 112.976,15.734 143.257,14.681 143.526 L 12.766 144.014 12.766 180.617 C 12.766 215.060,12.854 217.197,14.255 216.826 C 15.074 216.609,68.596 197.179,133.191 173.649 C 197.787 150.118,262.128 126.742,276.170 121.701 C 290.213 116.659,304.869 111.366,308.740 109.938 L 315.778 107.341 315.519 252.181 C 315.233 411.641,315.652 398.881,310.141 415.956 C 275.744 522.525,121.690 522.473,87.281 415.880 C 82.153 399.996,82.128 399.651,82.128 346.466 L 82.128 297.613 95.745 292.673 C 103.234 289.956,109.649 287.716,110.000 287.696 C 110.351 287.676,110.651 308.053,110.667 332.979 C 110.705 392.909,111.409 399.513,119.619 416.895 C 145.445 471.574,218.071 484.143,260.637 441.300 C 275.565 426.274,283.887 408.245,285.954 386.448 C 286.859 376.899,287.204 149.787,286.313 149.787 C 285.858 149.787,125.767 207.481,46.809 236.100 L 13.191 248.285 12.936 318.398 C 12.629 402.851,13.298 411.844,21.768 437.159 C 65.583 568.117,229.115 608.452,328.400 512.790 C 356.917 485.313,374.859 450.871,382.721 408.511 C 384.319 399.899,385.628 9.313,384.058 9.396 C 383.699 9.415,300.872 39.492,200.000 76.234 M217.684 316.809 L 217.447 384.255 215.319 388.045 C 207.753 401.522,189.693 401.522,182.128 388.045 L 180.000 384.255 179.766 323.324 L 179.531 262.393 197.212 255.950 C 206.937 252.406,215.575 249.474,216.408 249.434 C 217.848 249.365,217.910 252.612,217.684 316.809 " stroke="none" fill="#000000" fill-rule="evenodd"></path></g></svg>